<?xml version="1.0" encoding="UTF-8"?>
<svg id="Capa_2" data-name="Capa 2" xmlns="http://www.w3.org/2000/svg" viewBox="0 0 640 360">
  <defs>
    <style>
      .cls-1, .cls-2 {
        fill: #d32f2f;
      }

      .cls-3 {
        fill: #ef9d5f;
      }

      .cls-4 {
        fill: #84ad51;
      }

      .cls-5, .cls-6 {
        isolation: isolate;
      }

      .cls-6 {
        font-family: Arial-BoldMT, Arial;
        font-size: 140.53px;
        font-weight: 700;
      }

      .cls-2 {
        fill-rule: evenodd;
      }
    </style>
  </defs>
  <g id="Capa_1-2" data-name="Capa 1">
    <g class="cls-5">
      <g class="cls-5">
        <text class="cls-6" transform="translate(296.51 157.68)"><tspan class="cls-1"><tspan x="0" y="0">beru</tspan></tspan><tspan class="cls-3"><tspan x="-38.97" y="115.09">foods</tspan></tspan></text>
      </g>
    </g>
    <path id="mapfork" class="cls-2" d="M116.57.42c97.7-8.14,168.36,103.27,122.7,187.9-5.63,5.88-12.9,2.2-20.31,1.47-8.25-1.52-25.3,3.89-16.65-11.6C250.49,88.57,137.42-6.46,66.81,66.1c-21.15,21.94-32.47,56.33-24.71,87.25,7.21,29.29,30.64,64.99,61.28,65.47,12.9-1.36,12.4-19.11,9.39-29.08-2.67-9.34-11.46-13.91-18.14-19.69-15.62-13.07-16.55-36.59-13.98-55.81,1.24-10.71.2-22.47,3.9-32.55,2.62-7.24,12.11-7.19,14.73-.37,4.05,11.71-1.68,36.22,3.76,46.41,3.21,5.09,10.48,3.88,12.35-1.99,3.9-13.02-.69-27.61,2.57-41,1.09-7.98,9.78-12.76,14.33-4.67,4.4,8.45,2.72,18.27,3.21,27.82.15,6.3-.59,13.44,2.37,19.06,3.06,6.09,10.48,4.83,12.3-1.63,2.67-9.13,1.38-20.53,1.68-30.45-1.38-21.94,15.32-26.72,18.04-3.83,12.45,96.86-23.13,65.52-31.48,104.74-.54,5.25-.25,10.6-.69,15.91-.54,8.5-3.11,15.8-3.61,24.1-.54,14.07,0,29.87-.35,44.1-.79,20.84-.4,32.6,12.95,49.19,5.19,8.77-3.36,16.59-8.01,23.15-11.81,15.54-21.99,5.09-30.09-7.82-7.91-11.29-16.16-22.89-23.52-34.6C42.74,243.34-25.75,165.64,9.98,80.69,28.11,35.91,70.37,3.31,116.47.42h.1,0Z"/>
    <path class="cls-4" d="M216.74,251.63l-27.18,29.93-12.4-13.7c-1.48-1.63-3.85-1.63-5.29,0-1.48,1.63-1.48,4.25,0,5.83l15.07,16.59c.74.79,1.68,1.21,2.67,1.21s1.93-.42,2.67-1.21l29.8-32.87c1.48-1.63,1.48-4.25,0-5.83-1.48-1.63-3.85-1.63-5.29,0h-.05v.05Z"/>
    <path class="cls-3" d="M176.96,207.63c-1.33.31-2.47,1.42-3.06,2.84-.44,1.05-.44,1.26-.49,3.78v2.21h-6.37c-6.08,0-6.37,0-7.12.16-3.11.58-5.63,2.1-7.81,4.52-2.37,2.73-3.81,6.09-4.3,10.08-.1.79-.1,2.68-.1,38.38s0,37.59.1,38.27c.4,2.63,1.53,4.83,3.36,6.41.94.84,2.27,1.52,3.46,1.79.54.11,2.42.11,42.3.11s41.81,0,42.3-.11c1.73-.42,3.21-1.31,4.45-2.84,1.43-1.73,2.27-3.83,2.42-6.3,0-.63.05-11.92,0-37.91v-37.01l-.15-1c-.4-2.99-1.28-5.46-2.72-7.77-.59-.95-2.03-2.63-2.77-3.31-2.03-1.79-4.2-2.89-6.77-3.31-.59-.11-1.43-.11-6.97-.16h-6.33v-1.84c0-1,0-2.05-.05-2.36-.35-3.52-3.36-5.62-6.08-4.31-.94.42-1.83,1.42-2.27,2.57-.44,1.05-.44,1.26-.49,3.78v2.21h-29.2v-1.79c0-1,0-2.05-.05-2.36-.25-2.31-1.63-4.15-3.56-4.62-.54-.11-1.28-.11-1.83,0l.1-.11ZM235.91,271.37v32.92l-.15.42c-.2.53-.59,1.1-.94,1.26-.25.11-4.65.11-37.95.11h-37.66l-.25-.21c-.3-.21-.59-.63-.74-1.16l-.15-.42v-65.84h77.88v32.92h-.05Z"/>
    <ellipse class="cls-3" cx="177.94" cy="210" rx="6.23" ry="6.62"/>
    <rect class="cls-3" x="171.72" y="210" width="12.45" height="12.13"/>
    <rect class="cls-3" x="209.87" y="210" width="12.45" height="11.87"/>
    <ellipse class="cls-3" cx="216.09" cy="209.94" rx="6.23" ry="6.62"/>
  </g>
</svg>