<?xml version="1.0" encoding="UTF-8"?>
<svg id="Capa_2" data-name="Capa 2" xmlns="http://www.w3.org/2000/svg" viewBox="0 0 721 1024">
  <defs>
    <style>
      .cls-1 {
        fill: #ef9d5f;
      }

      .cls-2 {
        fill: #84ad51;
      }

      .cls-3 {
        fill: #d32f2f;
        fill-rule: evenodd;
      }
    </style>
  </defs>
  <g id="Capa_1-2" data-name="Capa 1">
    <path id="mapfork" class="cls-3" d="M331.58,1.2c277.89-23.15,478.89,293.74,349.01,534.46-16.02,16.73-36.69,6.27-57.77,4.18-23.47-4.33-71.97,11.05-47.37-33C712.5,251.93,390.89-18.36,190.03,188.01c-60.16,62.42-92.35,160.23-70.28,248.19,20.52,83.33,87.15,184.87,174.3,186.22,36.69-3.88,35.28-54.36,26.71-82.73-7.59-26.58-32.61-39.57-51.59-56-44.42-37.18-47.09-104.08-39.78-158.74,3.51-30.46.56-63.91,11.1-92.59,7.45-20.61,34.44-20.46,41.89-1.05,11.53,33.3-4.78,103.04,10.68,132.01,9.14,14.49,29.8,11.05,35.14-5.67,11.1-37.03-1.97-78.55,7.31-116.63,3.09-22.7,27.83-36.29,40.76-13.29,12.51,24.04,7.73,51.97,9.14,79.15.42,17.92-1.69,38.23,6.75,54.21,8.71,17.32,29.8,13.74,35-4.63,7.59-25.98,3.94-58.39,4.78-86.61-3.94-62.42,43.57-76.01,51.3-10.9,35.42,275.52-65.78,186.37-89.54,297.92-1.55,14.93-.7,30.17-1.97,45.25-1.55,24.19-8.86,44.95-10.26,68.54-1.55,40.02,0,84.97-.98,125.44-2.25,59.29-1.12,92.74,36.83,139.92,14.76,24.94-9.56,47.19-22.77,65.86-33.59,44.2-62.55,14.49-85.6-22.25-22.49-32.11-45.96-65.11-66.91-98.41C121.58,692.16-73.24,471.15,28.38,229.53,79.97,102.15,200.15,9.41,331.29,1.2h.28,0Z"/>
    <path class="cls-2" d="M616.49,715.75l-77.31,85.12-35.28-38.98c-4.22-4.63-10.96-4.63-15.04,0-4.22,4.63-4.22,12.1,0,16.58l42.87,47.19c2.11,2.24,4.78,3.43,7.59,3.43s5.48-1.19,7.59-3.43l84.76-93.48c4.22-4.63,4.22-12.1,0-16.58-4.22-4.63-10.96-4.63-15.04,0h-.14v.15Z"/>
    <path class="cls-1" d="M503.34,590.61c-3.8.9-7.03,4.03-8.71,8.06-1.27,2.99-1.27,3.58-1.41,10.75v6.27h-18.13c-17.29,0-18.13,0-20.24.45-8.86,1.64-16.02,5.97-22.21,12.84-6.75,7.77-10.82,17.32-12.23,28.67-.28,2.24-.28,7.62-.28,109.16s0,106.92.28,108.87c1.12,7.47,4.36,13.74,9.56,18.22,2.67,2.39,6.47,4.33,9.84,5.08,1.55.3,6.89.3,120.32.3s118.92,0,120.32-.3c4.92-1.19,9.14-3.73,12.65-8.06,4.08-4.93,6.47-10.9,6.89-17.92,0-1.79.14-33.9,0-107.82v-105.28l-.42-2.84c-1.12-8.51-3.65-15.53-7.73-22.1-1.69-2.69-5.76-7.47-7.87-9.41-5.76-5.08-11.95-8.21-19.26-9.41-1.69-.3-4.08-.3-19.82-.45h-17.99v-5.23c0-2.84,0-5.82-.14-6.72-.98-10.01-9.56-15.98-17.29-12.25-2.67,1.19-5.2,4.03-6.47,7.32-1.27,2.99-1.27,3.58-1.41,10.75v6.27h-83.07v-5.08c0-2.84,0-5.82-.14-6.72-.7-6.57-4.64-11.8-10.12-13.14-1.55-.3-3.65-.3-5.2,0l.28-.3ZM671.03,771.9v93.63l-.42,1.19c-.56,1.49-1.69,3.14-2.67,3.58-.7.3-13.21.3-107.95.3h-107.11l-.7-.6c-.84-.6-1.69-1.79-2.11-3.29l-.42-1.19v-187.27h221.52v93.63h-.14Z"/>
    <ellipse class="cls-1" cx="506.15" cy="597.33" rx="17.71" ry="18.82"/>
    <rect class="cls-1" x="488.44" y="597.33" width="35.42" height="34.5"/>
    <rect class="cls-1" x="596.96" y="597.33" width="35.42" height="33.75"/>
    <ellipse class="cls-1" cx="614.67" cy="597.18" rx="17.71" ry="18.82"/>
  </g>
</svg>